<svg id="svg" version="1.1" xmlns="http://www.w3.org/2000/svg" xmlns:xlink="http://www.w3.org/1999/xlink" width="400" height="268.51735015772874" viewBox="0, 0, 400,268.51735015772874"><g id="svgg"><path id="path0" d="M230.830 25.026 C 230.738 38.790,230.662 67.863,230.662 89.632 L 230.662 129.211 243.785 129.211 L 256.909 129.211 256.909 64.606 L 256.909 0.000 243.953 0.000 L 230.998 0.000 230.830 25.026 M196.508 36.004 C 196.416 41.648,196.341 64.928,196.341 87.739 L 196.341 129.211 209.464 129.211 L 222.587 129.211 222.587 77.476 L 222.587 25.741 209.631 25.741 L 196.675 25.741 196.508 36.004 " stroke="none" fill="#e57c1b" fill-rule="evenodd"></path><path id="path1" d="M196.449 33.817 C 196.449 36.940,196.485 38.218,196.529 36.656 C 196.573 35.095,196.573 32.539,196.529 30.978 C 196.485 29.416,196.449 30.694,196.449 33.817 M162.271 90.347 L 162.271 129.211 175.268 129.211 L 188.265 129.211 188.265 90.347 L 188.265 51.483 175.268 51.483 L 162.271 51.483 162.271 90.347 " stroke="none" fill="#acd43b" fill-rule="evenodd"></path><path id="path2" d="M127.892 103.028 C 127.821 117.221,127.812 128.918,127.871 129.022 C 127.931 129.126,133.803 129.211,140.921 129.211 L 153.863 129.211 154.029 123.871 C 154.121 120.934,154.196 109.237,154.196 97.877 L 154.196 77.224 141.108 77.224 L 128.020 77.224 127.892 103.028 " stroke="none" fill="#23bcec" fill-rule="evenodd"></path><path id="path3" d="M25.171 136.673 C 21.766 137.296,17.966 138.796,15.020 140.680 C 13.188 141.853,9.338 145.723,9.338 146.394 C 9.338 146.521,9.224 146.625,9.085 146.625 C 8.946 146.625,8.833 146.740,8.833 146.882 C 8.833 147.024,8.566 147.563,8.241 148.081 C 7.915 148.598,7.510 149.476,7.340 150.032 C 7.170 150.587,6.929 151.268,6.805 151.546 C 4.383 156.956,6.309 166.830,10.676 171.392 C 12.944 173.762,19.381 177.380,22.461 178.016 C 22.669 178.059,23.009 178.162,23.218 178.245 C 24.001 178.556,27.279 179.444,31.672 180.536 C 34.170 181.156,36.527 181.784,36.909 181.930 C 37.290 182.076,37.603 182.128,37.603 182.045 C 37.603 181.962,37.790 182.050,38.020 182.240 C 38.249 182.431,38.448 182.550,38.462 182.506 C 38.475 182.461,38.826 182.558,39.243 182.720 C 39.659 182.883,40.114 183.044,40.252 183.079 C 46.893 184.757,49.358 192.616,44.702 197.264 C 41.999 199.962,35.934 201.308,30.032 200.518 C 25.620 199.927,22.292 198.738,18.086 196.249 C 16.999 195.605,16.006 195.079,15.878 195.079 C 15.751 195.079,15.646 194.994,15.645 194.890 C 15.644 194.785,15.220 194.416,14.702 194.069 C 14.185 193.722,13.589 193.301,13.379 193.133 C 13.169 192.965,12.494 192.436,11.880 191.956 L 10.764 191.084 10.243 191.757 C 9.956 192.126,9.386 192.803,8.974 193.260 C 8.563 193.718,8.051 194.325,7.836 194.609 C 7.621 194.894,7.218 195.389,6.940 195.709 C 6.662 196.029,5.964 196.841,5.389 197.514 C 4.813 198.187,4.047 199.079,3.686 199.495 C 2.792 200.525,2.834 200.676,4.353 201.929 C 5.082 202.530,5.735 203.094,5.804 203.183 C 6.222 203.719,11.400 206.898,13.748 208.061 C 23.460 212.869,37.712 213.908,46.497 210.449 C 51.132 208.624,54.442 206.062,56.891 202.405 C 57.994 200.758,59.251 198.186,59.301 197.474 C 59.306 197.407,59.505 196.869,59.744 196.278 C 60.210 195.125,60.391 187.733,60.005 185.615 C 59.590 183.338,59.493 182.965,59.317 182.965 C 59.216 182.965,59.004 182.539,58.847 182.019 C 58.491 180.846,56.757 178.170,55.743 177.231 C 55.327 176.845,54.651 176.215,54.241 175.831 C 52.162 173.881,45.151 170.471,41.655 169.709 C 41.439 169.662,40.467 169.390,39.495 169.104 C 38.524 168.818,35.968 168.122,33.817 167.557 C 22.366 164.550,19.324 162.330,19.311 156.972 C 19.298 151.285,23.536 148.152,31.270 148.131 C 32.879 148.126,34.479 148.180,34.826 148.251 C 40.206 149.343,44.407 151.142,49.382 154.484 L 51.194 155.701 52.095 154.473 C 52.591 153.797,52.997 153.127,52.997 152.984 C 52.997 152.841,53.095 152.686,53.216 152.639 C 53.661 152.468,58.371 145.514,58.103 145.424 C 57.950 145.373,57.448 144.997,56.988 144.587 C 50.157 138.510,35.313 134.818,25.171 136.673 M96.158 138.408 C 95.738 139.307,95.394 140.109,95.394 140.190 C 95.394 140.272,94.997 141.188,94.511 142.225 C 94.025 143.263,93.628 144.158,93.628 144.214 C 93.628 144.270,93.230 145.177,92.744 146.229 C 92.259 147.280,91.861 148.204,91.861 148.282 C 91.861 148.359,91.568 149.068,91.210 149.858 C 90.852 150.647,90.464 151.521,90.347 151.798 C 89.961 152.721,88.910 155.055,87.983 157.048 C 87.479 158.131,87.066 159.107,87.066 159.217 C 87.066 159.328,86.882 159.804,86.656 160.277 C 86.430 160.749,86.043 161.590,85.796 162.145 C 85.549 162.700,85.044 163.836,84.674 164.669 C 84.303 165.502,83.782 166.620,83.514 167.153 C 83.247 167.687,83.028 168.238,83.028 168.378 C 83.028 168.519,82.735 169.218,82.376 169.932 C 82.017 170.646,81.721 171.287,81.717 171.356 C 81.713 171.426,81.483 171.994,81.207 172.618 C 80.930 173.243,80.554 174.095,80.371 174.511 C 79.741 175.946,78.694 178.299,78.238 179.306 C 77.986 179.861,77.637 180.713,77.461 181.199 C 77.285 181.685,77.013 182.252,76.856 182.461 C 76.699 182.669,76.420 183.293,76.236 183.849 C 75.921 184.795,75.287 186.282,74.190 188.644 C 73.527 190.071,72.578 192.274,72.179 193.312 C 71.992 193.798,71.747 194.319,71.633 194.470 C 71.519 194.621,71.267 195.188,71.072 195.732 C 70.877 196.275,70.307 197.600,69.806 198.676 C 69.306 199.752,68.896 200.700,68.896 200.782 C 68.896 200.865,68.498 201.769,68.013 202.793 C 67.527 203.817,67.129 204.712,67.129 204.782 C 67.129 204.853,66.724 205.793,66.228 206.871 C 65.732 207.950,65.159 209.230,64.954 209.716 C 64.749 210.202,64.472 210.798,64.339 211.041 C 64.025 211.612,77.473 211.737,77.907 211.167 C 78.039 210.994,78.407 210.227,78.723 209.464 C 79.371 207.904,80.164 206.057,80.512 205.300 C 80.639 205.022,80.981 204.170,81.272 203.407 C 81.562 202.644,82.063 201.451,82.385 200.757 C 83.422 198.518,84.023 197.139,84.695 195.461 L 85.353 193.817 102.736 193.817 L 120.118 193.817 120.754 195.074 C 121.105 195.765,121.630 196.985,121.922 197.786 C 122.214 198.587,122.736 199.868,123.082 200.631 C 123.429 201.394,123.802 202.246,123.912 202.524 C 124.022 202.801,124.302 203.483,124.534 204.038 C 124.766 204.593,125.041 205.274,125.147 205.552 C 125.252 205.830,125.576 206.568,125.867 207.192 C 126.871 209.350,127.416 210.726,127.265 210.726 C 127.182 210.726,127.320 210.953,127.571 211.230 C 128.107 211.822,141.577 212.041,141.577 211.458 C 141.577 211.159,141.250 210.381,139.909 207.495 C 139.439 206.481,139.054 205.510,139.054 205.337 C 139.054 205.164,138.949 204.914,138.820 204.782 C 138.692 204.650,138.227 203.634,137.789 202.524 C 137.350 201.413,136.907 200.391,136.806 200.252 C 136.704 200.114,136.186 198.921,135.655 197.603 C 135.123 196.284,134.593 195.082,134.477 194.931 C 134.361 194.780,134.107 194.212,133.913 193.669 C 133.577 192.727,132.917 191.218,131.585 188.344 C 131.251 187.624,130.978 186.959,130.978 186.868 C 130.978 186.684,130.636 185.893,129.563 183.596 C 129.174 182.763,128.841 182.025,128.823 181.956 C 128.764 181.726,128.268 180.590,127.473 178.858 C 127.041 177.918,126.688 177.063,126.688 176.958 C 126.688 176.854,126.351 176.119,125.938 175.324 C 125.526 174.530,125.265 173.880,125.358 173.880 C 125.451 173.880,125.391 173.744,125.224 173.577 C 125.057 173.411,124.921 173.070,124.921 172.820 C 124.921 172.570,124.820 172.366,124.696 172.366 C 124.572 172.366,124.394 172.060,124.301 171.687 C 124.207 171.314,123.627 169.938,123.012 168.630 C 122.396 167.322,121.893 166.154,121.893 166.034 C 121.893 165.914,121.489 164.933,120.996 163.854 C 120.503 162.775,120.002 161.666,119.883 161.388 C 119.764 161.110,119.441 160.372,119.164 159.748 C 118.888 159.123,118.468 158.158,118.230 157.603 C 117.993 157.047,117.527 156.043,117.196 155.371 C 116.864 154.699,116.593 154.046,116.593 153.921 C 116.593 153.796,116.196 152.832,115.710 151.781 C 115.224 150.729,114.826 149.823,114.826 149.766 C 114.826 149.710,114.429 148.815,113.943 147.777 C 113.457 146.740,113.060 145.824,113.060 145.742 C 113.060 145.661,112.733 144.889,112.333 144.027 C 111.468 142.164,110.724 140.502,110.023 138.864 C 109.741 138.205,109.416 137.495,109.302 137.287 C 109.127 136.970,108.108 136.898,103.008 136.841 L 96.923 136.773 96.158 138.408 M352.701 137.658 C 352.482 138.182,352.303 138.753,352.303 138.927 C 352.303 139.102,352.132 139.386,351.924 139.558 C 351.716 139.731,351.546 140.026,351.546 140.214 C 351.546 140.402,351.220 141.268,350.823 142.139 C 350.425 143.010,349.803 144.372,349.441 145.167 C 349.079 145.961,348.711 146.898,348.623 147.249 C 348.535 147.599,348.361 147.886,348.238 147.886 C 348.114 147.886,348.013 148.058,348.013 148.268 C 348.013 148.478,347.903 148.848,347.770 149.089 C 347.546 149.494,346.477 151.890,345.999 153.060 C 345.432 154.446,344.228 157.177,342.243 161.575 C 341.946 162.232,341.703 162.846,341.703 162.937 C 341.703 163.029,341.431 163.683,341.099 164.391 C 340.346 165.992,339.377 168.137,338.807 169.464 C 338.568 170.019,338.175 170.927,337.932 171.483 C 337.690 172.038,336.951 173.741,336.289 175.268 C 335.627 176.795,334.802 178.669,334.456 179.432 C 334.110 180.196,333.737 181.047,333.627 181.325 C 333.518 181.603,333.149 182.454,332.807 183.218 C 332.465 183.981,331.927 185.230,331.611 185.994 C 331.077 187.285,330.515 188.568,329.320 191.232 C 329.055 191.822,328.860 192.333,328.887 192.367 C 328.914 192.401,328.747 192.770,328.517 193.186 C 327.982 194.155,326.814 196.719,326.814 196.927 C 326.814 197.014,326.463 197.855,326.035 198.795 C 325.606 199.735,325.089 200.902,324.885 201.388 C 324.681 201.874,324.224 202.896,323.870 203.659 C 323.515 204.423,323.130 205.274,323.014 205.552 C 322.898 205.830,322.400 206.939,321.906 208.018 C 321.413 209.097,321.009 210.141,321.009 210.338 C 321.009 210.535,320.896 210.766,320.757 210.852 C 319.545 211.601,320.530 211.735,327.258 211.735 L 334.011 211.735 335.018 209.314 C 335.572 207.982,336.110 206.840,336.215 206.775 C 336.319 206.711,336.404 206.495,336.404 206.295 C 336.404 206.096,336.801 205.072,337.287 204.020 C 337.773 202.969,338.170 202.001,338.170 201.871 C 338.170 201.740,338.274 201.436,338.401 201.195 C 338.648 200.724,339.811 198.133,340.240 197.098 C 340.383 196.751,340.601 196.270,340.723 196.029 C 340.846 195.788,340.950 195.447,340.955 195.272 C 340.959 195.096,341.176 194.697,341.437 194.385 L 341.911 193.817 359.033 193.817 L 376.156 193.817 376.523 194.385 C 376.725 194.697,377.076 195.464,377.303 196.088 C 377.530 196.713,377.966 197.792,378.272 198.486 C 378.578 199.180,378.925 199.975,379.042 200.252 C 379.160 200.530,379.494 201.295,379.785 201.953 C 380.077 202.610,380.614 203.916,380.978 204.855 C 381.343 205.793,381.911 207.151,382.241 207.871 C 382.570 208.591,382.839 209.245,382.839 209.325 C 382.839 209.404,383.079 209.979,383.372 210.602 L 383.904 211.735 390.927 211.735 L 397.949 211.735 397.208 210.100 C 396.800 209.201,396.467 208.330,396.467 208.164 C 396.467 207.999,396.315 207.684,396.130 207.465 C 395.945 207.246,395.649 206.669,395.474 206.183 C 395.298 205.697,394.891 204.732,394.568 204.038 C 393.720 202.212,392.934 200.401,392.934 200.274 C 392.934 200.213,392.536 199.303,392.050 198.251 C 391.565 197.199,391.167 196.183,391.167 195.992 C 391.167 195.801,391.015 195.519,390.829 195.365 C 390.644 195.211,390.349 194.609,390.175 194.028 C 390.001 193.446,389.698 192.726,389.502 192.427 C 389.307 192.128,389.223 191.808,389.316 191.715 C 389.409 191.622,389.352 191.546,389.190 191.546 C 389.028 191.546,388.896 191.421,388.896 191.268 C 388.896 191.116,388.732 190.633,388.532 190.196 C 387.180 187.243,385.868 184.189,385.868 183.997 C 385.868 183.872,385.647 183.333,385.378 182.800 C 385.108 182.266,384.696 181.375,384.461 180.820 C 383.958 179.632,383.291 178.119,382.344 176.025 C 381.968 175.192,381.398 173.886,381.077 173.123 C 380.756 172.360,380.272 171.224,380.001 170.599 C 379.731 169.975,379.341 169.066,379.136 168.580 C 378.931 168.095,378.548 167.243,378.285 166.688 C 377.579 165.198,376.543 162.820,375.985 161.408 C 375.470 160.106,374.831 158.621,373.966 156.719 C 373.682 156.095,373.191 155.016,372.876 154.322 C 372.226 152.892,371.663 151.607,371.606 151.420 C 371.585 151.350,371.310 150.726,370.995 150.032 C 370.680 149.338,370.399 148.656,370.369 148.517 C 370.340 148.379,370.011 147.609,369.638 146.808 C 369.265 146.006,368.664 144.644,368.303 143.779 C 367.941 142.915,367.347 141.584,366.984 140.820 C 366.621 140.057,366.353 139.333,366.390 139.211 C 366.426 139.090,366.295 138.806,366.097 138.580 C 365.900 138.355,365.660 137.915,365.565 137.603 C 365.405 137.077,365.245 137.035,363.430 137.035 C 362.351 137.035,359.585 136.960,357.284 136.870 L 353.099 136.705 352.701 137.658 M127.811 137.608 C 127.743 137.784,127.718 140.538,127.755 143.728 L 127.823 149.527 139.621 149.592 L 151.420 149.658 151.420 180.697 L 151.420 211.735 158.107 211.735 L 164.795 211.735 164.795 180.694 L 164.795 149.653 176.530 149.653 L 188.265 149.653 188.265 143.470 L 188.265 137.287 158.099 137.287 C 133.926 137.287,127.909 137.351,127.811 137.608 M196.341 143.496 L 196.341 149.653 208.076 149.653 L 219.811 149.653 219.811 180.694 L 219.811 211.735 226.498 211.735 L 233.186 211.735 233.186 180.694 L 233.186 149.653 245.052 149.653 L 256.917 149.653 256.850 143.533 L 256.782 137.413 226.562 137.377 L 196.341 137.340 196.341 143.496 M265.126 137.514 C 265.046 137.644,265.102 138.070,265.251 138.461 C 265.611 139.407,266.233 140.842,266.520 141.385 C 266.647 141.626,266.751 142.051,266.751 142.331 C 266.751 142.610,266.851 142.839,266.974 142.839 C 267.097 142.839,267.390 143.427,267.625 144.146 C 267.860 144.865,268.259 145.915,268.512 146.480 C 269.896 149.571,270.284 150.493,270.284 150.694 C 270.284 150.817,270.568 151.506,270.915 152.225 C 271.262 152.944,271.546 153.630,271.546 153.749 C 271.546 153.867,271.872 154.669,272.272 155.531 C 272.671 156.393,273.084 157.382,273.190 157.729 C 273.295 158.076,273.650 158.949,273.978 159.668 C 274.306 160.388,274.574 161.042,274.574 161.122 C 274.574 161.202,274.784 161.749,275.042 162.337 C 276.119 164.804,278.612 170.829,278.612 170.968 C 278.612 171.122,279.813 173.863,280.136 174.445 C 280.269 174.686,280.379 175.005,280.379 175.154 C 280.379 175.303,280.647 176.015,280.976 176.735 C 281.305 177.455,282.060 179.237,282.655 180.694 C 283.250 182.151,283.928 183.798,284.163 184.353 C 284.397 184.909,284.739 185.760,284.922 186.246 C 285.105 186.732,285.350 187.237,285.466 187.369 C 285.583 187.501,285.678 187.763,285.678 187.953 C 285.678 188.142,285.947 188.885,286.275 189.606 C 286.604 190.326,287.133 191.596,287.452 192.429 C 287.771 193.262,288.107 194.057,288.200 194.196 C 288.292 194.334,288.572 195.016,288.823 195.710 C 289.073 196.404,289.376 197.079,289.497 197.211 C 289.617 197.343,289.716 197.596,289.716 197.772 C 289.716 197.949,289.984 198.693,290.312 199.425 C 291.458 201.986,291.570 202.273,291.516 202.492 C 291.486 202.614,291.613 202.898,291.798 203.123 C 291.984 203.349,292.288 203.987,292.476 204.543 C 292.663 205.098,293.084 206.141,293.411 206.861 C 293.739 207.581,294.006 208.235,294.006 208.315 C 294.006 208.394,294.220 208.941,294.481 209.530 C 294.742 210.118,295.097 210.968,295.269 211.420 L 295.582 212.240 301.437 212.240 L 307.293 212.240 307.968 210.777 C 308.340 209.973,308.644 209.244,308.644 209.158 C 308.644 209.071,308.867 208.479,309.141 207.841 C 309.414 207.203,309.652 206.597,309.670 206.495 C 309.688 206.393,309.828 206.082,309.981 205.804 C 310.134 205.527,310.280 205.178,310.306 205.030 C 310.331 204.882,310.634 204.144,310.979 203.390 C 311.324 202.636,312.146 200.656,312.805 198.991 C 313.465 197.325,314.091 195.849,314.197 195.710 C 314.303 195.571,314.469 195.088,314.565 194.637 C 314.661 194.186,314.845 193.817,314.973 193.817 C 315.101 193.817,315.205 193.645,315.205 193.434 C 315.205 193.078,317.109 188.328,318.289 185.741 C 318.574 185.117,318.893 184.379,318.999 184.101 C 319.178 183.631,319.751 182.244,320.249 181.073 C 320.367 180.795,320.778 179.716,321.162 178.675 C 321.546 177.634,321.952 176.659,322.063 176.508 C 322.174 176.357,322.438 175.741,322.651 175.139 C 323.003 174.142,323.753 172.415,324.320 171.297 C 324.443 171.056,324.543 170.747,324.543 170.610 C 324.543 170.473,324.814 169.761,325.147 169.029 C 325.479 168.296,326.047 166.929,326.409 165.990 C 326.771 165.052,327.305 163.746,327.596 163.088 C 327.888 162.431,328.240 161.609,328.380 161.262 C 328.794 160.232,329.378 158.895,329.618 158.426 C 329.741 158.185,329.842 157.876,329.842 157.739 C 329.842 157.602,330.114 156.891,330.446 156.158 C 330.778 155.426,331.346 154.058,331.708 153.120 C 332.070 152.181,332.605 150.875,332.896 150.218 C 333.187 149.560,333.540 148.738,333.679 148.391 C 333.948 147.722,334.392 146.656,334.835 145.615 C 334.982 145.268,335.299 144.441,335.538 143.777 C 335.778 143.113,336.071 142.510,336.189 142.437 C 336.307 142.364,336.404 142.140,336.404 141.938 C 336.404 141.566,337.154 139.747,337.828 138.485 C 338.404 137.407,338.392 137.406,330.819 137.539 L 323.672 137.666 322.968 139.558 C 322.582 140.599,322.108 141.792,321.917 142.208 C 321.725 142.625,321.431 143.363,321.263 143.849 C 321.096 144.334,320.865 144.959,320.751 145.237 C 320.637 145.514,320.096 146.877,319.550 148.265 C 319.004 149.653,318.462 151.016,318.346 151.293 C 318.231 151.571,318.128 151.925,318.118 152.079 C 318.108 152.234,317.980 152.518,317.833 152.710 C 317.687 152.903,317.413 153.571,317.224 154.196 C 317.035 154.820,316.795 155.448,316.690 155.590 C 316.585 155.732,316.316 156.413,316.092 157.104 C 315.868 157.795,315.579 158.587,315.450 158.864 C 315.179 159.448,314.628 160.824,314.592 161.009 C 314.566 161.141,313.595 163.605,313.052 164.921 C 312.880 165.338,312.489 166.360,312.184 167.192 C 311.879 168.025,311.482 168.991,311.303 169.338 C 311.125 169.685,310.724 170.707,310.413 171.609 C 310.102 172.511,309.702 173.590,309.525 174.006 C 309.122 174.952,308.838 175.697,308.757 176.025 C 308.722 176.164,308.438 176.845,308.125 177.539 C 307.812 178.233,307.526 178.945,307.490 179.121 C 307.454 179.297,306.893 180.774,306.243 182.402 C 304.662 186.365,304.603 186.509,304.222 187.382 C 304.041 187.798,303.582 188.991,303.203 190.032 C 302.824 191.073,302.430 192.038,302.327 192.177 C 302.224 192.315,302.057 192.818,301.955 193.293 L 301.770 194.157 301.383 193.293 C 301.171 192.818,300.984 192.315,300.968 192.177 C 300.953 192.038,300.676 191.356,300.352 190.662 C 300.029 189.968,299.735 189.287,299.699 189.148 C 299.620 188.838,299.352 188.129,298.938 187.129 C 298.766 186.713,298.483 185.975,298.309 185.489 C 298.135 185.003,297.901 184.379,297.787 184.101 C 297.521 183.448,295.833 179.100,295.338 177.792 C 294.747 176.232,294.472 175.559,294.229 175.082 C 294.107 174.841,294.006 174.532,294.006 174.395 C 294.006 174.258,293.735 173.547,293.404 172.814 C 292.703 171.266,290.875 166.616,290.846 166.309 C 290.839 166.240,290.707 165.956,290.552 165.678 C 290.397 165.401,290.246 165.060,290.215 164.921 C 290.142 164.586,289.760 163.530,289.484 162.902 C 289.362 162.625,289.120 162.000,288.947 161.514 C 288.773 161.028,288.466 160.233,288.264 159.748 C 287.248 157.298,286.814 156.106,286.872 155.923 C 286.901 155.832,286.757 155.620,286.553 155.451 C 286.350 155.282,286.183 154.972,286.183 154.764 C 286.183 154.323,284.305 149.406,283.630 148.079 C 283.507 147.838,283.407 147.525,283.407 147.384 C 283.407 147.243,283.144 146.582,282.823 145.916 C 282.501 145.250,282.087 144.143,281.901 143.456 C 281.715 142.770,281.434 142.038,281.276 141.830 C 281.117 141.621,280.843 140.997,280.666 140.442 C 280.346 139.436,279.984 138.510,279.628 137.792 C 279.408 137.348,265.395 137.079,265.126 137.514 M104.137 155.822 C 104.464 156.509,104.732 157.154,104.732 157.255 C 104.732 157.357,105.143 158.328,105.645 159.414 C 106.148 160.500,106.581 161.502,106.607 161.640 C 106.633 161.779,106.904 162.397,107.208 163.013 C 107.512 163.629,107.760 164.224,107.760 164.336 C 107.760 164.448,108.271 165.626,108.896 166.954 C 109.521 168.281,110.032 169.485,110.032 169.629 C 110.032 169.773,110.192 170.192,110.388 170.560 C 111.004 171.718,111.798 173.610,111.798 173.921 C 111.798 174.085,111.950 174.398,112.136 174.617 C 112.322 174.836,112.735 175.697,113.054 176.530 C 113.635 178.048,114.669 180.438,115.101 181.258 C 115.228 181.499,115.331 181.755,115.331 181.826 C 115.331 181.898,109.710 181.956,102.839 181.956 C 95.968 181.956,90.347 181.902,90.347 181.836 C 90.347 181.771,90.565 181.231,90.832 180.638 C 91.099 180.044,91.508 179.104,91.740 178.549 C 91.973 177.994,92.364 177.085,92.610 176.530 C 92.855 175.975,93.253 175.066,93.493 174.511 C 93.733 173.956,94.131 173.047,94.376 172.492 C 95.357 170.274,95.599 169.678,95.889 168.770 C 96.055 168.249,96.295 167.823,96.423 167.823 C 96.551 167.823,96.656 167.614,96.656 167.357 C 96.656 167.101,96.841 166.505,97.067 166.032 C 97.567 164.986,98.232 163.496,98.803 162.145 C 99.204 161.195,99.586 160.325,100.515 158.233 C 100.731 157.748,100.984 157.043,101.078 156.667 C 101.172 156.290,101.407 155.851,101.602 155.689 C 101.797 155.528,101.956 155.253,101.956 155.079 C 101.956 154.905,102.136 154.331,102.356 153.804 L 102.757 152.845 103.149 153.710 C 103.365 154.185,103.809 155.136,104.137 155.822 M359.886 155.069 C 360.326 156.167,360.774 157.243,360.882 157.460 C 360.990 157.677,361.335 158.479,361.650 159.243 C 362.273 160.756,363.287 163.004,363.842 164.101 C 364.035 164.483,364.123 164.795,364.038 164.795 C 363.953 164.795,364.057 165.107,364.269 165.489 C 364.693 166.249,366.940 171.288,366.940 171.477 C 366.940 171.585,367.544 172.984,368.686 175.521 C 368.936 176.076,369.454 177.268,369.838 178.170 C 370.221 179.073,370.634 180.008,370.756 180.249 C 370.878 180.490,370.978 180.822,370.978 180.986 C 370.978 181.151,371.140 181.464,371.337 181.684 C 371.665 182.046,370.577 182.082,359.287 182.082 C 351.231 182.082,346.851 181.993,346.804 181.830 C 346.764 181.691,346.921 181.123,347.154 180.568 C 347.939 178.692,348.214 178.048,348.716 176.909 C 348.992 176.284,349.696 174.637,350.281 173.249 C 351.748 169.770,352.753 167.441,353.495 165.804 C 353.840 165.041,354.211 164.189,354.319 163.912 C 354.426 163.634,354.862 162.612,355.286 161.640 C 355.710 160.669,356.301 159.249,356.599 158.486 C 356.896 157.723,357.258 156.957,357.402 156.783 C 357.546 156.609,357.581 156.467,357.478 156.467 C 357.376 156.467,357.454 156.211,357.651 155.899 C 357.849 155.587,358.215 154.785,358.464 154.117 C 358.714 153.449,358.956 152.941,359.002 152.987 C 359.048 153.033,359.446 153.970,359.886 155.069 M62.783 245.963 C 59.684 246.876,57.783 249.806,58.567 252.461 C 59.224 254.686,60.571 255.588,65.054 256.806 C 69.208 257.934,69.633 258.260,69.554 260.258 C 69.417 263.711,63.374 264.351,60.028 261.268 C 59.280 260.578,58.608 260.776,58.030 261.857 C 57.201 263.406,62.293 265.658,66.123 265.437 C 73.075 265.034,74.544 256.298,67.876 255.014 C 67.603 254.961,67.275 254.854,67.148 254.775 C 67.020 254.696,66.326 254.520,65.605 254.383 C 61.797 253.661,60.112 251.932,61.212 249.877 C 62.421 247.619,66.591 247.433,69.354 249.515 C 69.814 249.862,70.254 250.083,70.331 250.006 C 70.408 249.929,70.724 249.496,71.035 249.043 L 71.598 248.220 70.689 247.569 C 68.666 246.122,64.866 245.350,62.783 245.963 M141.071 246.026 C 138.941 246.722,137.934 247.638,137.133 249.609 L 136.487 251.199 137.141 252.866 C 137.937 254.893,139.194 255.768,142.587 256.656 C 147.519 257.947,148.561 258.795,147.904 260.987 C 146.998 264.011,141.442 264.093,138.126 261.131 C 137.531 260.600,137.308 260.709,136.299 262.023 C 135.964 262.459,136.951 263.721,137.627 263.722 C 137.744 263.722,138.142 263.935,138.510 264.194 C 142.551 267.042,149.760 265.183,150.312 261.151 C 150.846 257.259,148.972 255.479,143.060 254.258 C 141.004 253.834,139.352 252.614,139.264 251.456 C 139.017 248.220,143.043 247.062,147.082 249.207 C 148.009 249.699,148.802 249.997,148.845 249.869 C 148.887 249.741,149.144 249.382,149.414 249.070 C 150.086 248.295,150.068 248.252,148.696 247.399 C 146.621 246.109,142.879 245.435,141.071 246.026 M0.252 247.192 L 0.252 248.328 3.407 248.328 L 6.562 248.328 6.562 256.782 L 6.562 265.237 7.697 265.237 L 8.833 265.237 8.833 256.782 L 8.833 248.328 12.114 248.328 L 15.394 248.328 15.394 247.192 L 15.394 246.057 7.823 246.057 L 0.252 246.057 0.252 247.192 M18.927 255.647 L 18.927 265.237 20.189 265.237 L 21.451 265.237 21.451 261.577 L 21.451 257.918 23.919 257.918 C 26.739 257.918,26.549 257.796,28.921 261.121 C 29.581 262.045,30.312 262.993,30.546 263.227 C 30.780 263.461,31.182 264.009,31.439 264.445 C 31.913 265.246,34.826 265.710,34.826 264.984 C 34.826 264.845,34.721 264.732,34.591 264.732 C 34.462 264.732,34.292 264.533,34.214 264.290 C 34.136 264.047,33.725 263.451,33.301 262.965 C 32.878 262.479,32.341 261.770,32.110 261.388 C 31.879 261.006,31.600 260.694,31.491 260.694 C 31.382 260.694,31.293 260.529,31.293 260.328 C 31.293 260.127,31.142 259.871,30.958 259.760 C 30.774 259.649,30.320 259.107,29.949 258.554 L 29.276 257.550 29.843 257.318 C 30.155 257.190,30.558 257.055,30.738 257.018 C 32.520 256.647,34.163 253.970,34.022 251.665 C 33.748 247.162,31.826 246.085,24.038 246.068 L 18.927 246.057 18.927 255.647 M38.209 246.407 C 37.740 247.630,38.250 259.349,38.840 260.896 C 40.031 264.019,42.201 265.336,46.183 265.352 C 50.069 265.368,51.843 264.337,53.331 261.199 L 54.109 259.558 54.203 252.808 L 54.297 246.057 53.016 246.057 L 51.735 246.057 51.735 252.094 C 51.735 261.254,50.794 263.192,46.338 263.212 C 41.551 263.234,40.631 261.466,40.631 252.254 L 40.631 246.057 39.487 246.057 C 38.744 246.057,38.297 246.180,38.209 246.407 M74.448 247.192 L 74.448 248.328 77.603 248.328 L 80.757 248.328 80.757 256.782 L 80.757 265.237 82.019 265.237 L 83.281 265.237 83.281 256.782 L 83.281 248.328 86.435 248.328 L 89.590 248.328 89.590 247.192 L 89.590 246.057 82.019 246.057 L 74.448 246.057 74.448 247.192 M105.489 255.647 L 105.489 265.237 106.625 265.237 L 107.760 265.237 107.760 255.647 L 107.760 246.057 106.625 246.057 L 105.489 246.057 105.489 255.647 M111.798 247.192 L 111.798 248.328 114.953 248.328 L 118.107 248.328 118.107 256.782 L 118.107 265.237 119.369 265.237 L 120.631 265.237 120.631 256.782 L 120.631 248.328 123.785 248.328 L 126.940 248.328 126.940 247.192 L 126.940 246.057 119.369 246.057 L 111.798 246.057 111.798 247.192 M130.221 247.727 C 130.221 249.272,130.258 249.387,130.726 249.264 C 131.035 249.184,131.230 249.257,131.230 249.453 C 131.230 249.945,130.231 251.104,129.807 251.104 C 129.545 251.104,129.454 251.315,129.510 251.798 C 129.610 252.670,130.384 252.652,131.564 251.752 C 132.595 250.966,132.899 250.130,132.972 247.877 L 133.031 246.057 131.626 246.057 L 130.221 246.057 130.221 247.727 M161.262 246.352 C 161.262 246.515,161.560 247.392,161.923 248.302 C 162.287 249.211,162.610 250.072,162.641 250.214 C 162.832 251.096,163.123 252.023,163.277 252.240 C 163.376 252.379,163.648 253.117,163.883 253.880 C 164.118 254.644,164.405 255.495,164.522 255.773 C 164.918 256.712,166.011 259.805,166.306 260.820 C 166.468 261.375,166.752 262.170,166.939 262.587 C 167.126 263.003,167.434 263.798,167.623 264.353 C 167.941 265.284,168.047 265.369,168.983 265.438 L 169.998 265.513 170.698 263.293 C 171.083 262.072,171.572 260.618,171.783 260.063 C 171.995 259.508,172.555 257.861,173.029 256.404 C 173.502 254.946,173.995 253.527,174.125 253.249 C 174.254 252.972,174.522 252.241,174.720 251.626 C 175.051 250.597,175.094 250.557,175.265 251.122 C 175.367 251.459,175.594 252.076,175.769 252.492 C 175.944 252.909,176.790 255.407,177.648 258.044 C 180.020 265.331,180.095 265.489,181.186 265.489 C 182.187 265.489,182.067 265.704,183.861 260.694 C 184.234 259.653,184.630 258.574,184.742 258.297 C 184.853 258.019,185.229 256.940,185.578 255.899 C 185.926 254.858,186.628 252.871,187.137 251.483 C 187.646 250.095,188.211 248.505,188.393 247.950 C 188.574 247.394,188.804 246.735,188.905 246.484 C 189.069 246.074,188.954 246.036,187.769 246.106 L 186.450 246.183 185.572 248.707 C 185.089 250.095,184.596 251.571,184.476 251.987 C 184.356 252.404,183.790 254.050,183.218 255.647 C 182.227 258.409,181.840 259.611,181.530 260.883 C 181.333 261.694,181.016 261.585,180.807 260.635 C 180.598 259.680,179.761 257.005,179.445 256.278 C 179.324 256.000,179.040 255.148,178.814 254.385 C 178.588 253.621,178.307 252.770,178.190 252.492 C 178.073 252.215,177.545 250.653,177.017 249.022 L 176.058 246.057 175.126 246.057 C 174.097 246.057,174.037 246.145,173.237 248.833 C 173.009 249.596,172.620 250.789,172.372 251.483 C 172.123 252.177,171.502 254.050,170.991 255.647 C 170.480 257.243,169.964 258.776,169.845 259.054 C 169.726 259.331,169.559 259.879,169.474 260.270 C 169.139 261.810,168.764 260.993,166.201 253.123 C 165.816 251.943,165.404 250.751,165.283 250.473 C 165.163 250.196,164.823 249.230,164.528 248.328 C 164.233 247.426,163.875 246.546,163.732 246.372 C 163.397 245.967,161.262 245.950,161.262 246.352 M192.555 255.647 L 192.555 265.237 193.691 265.237 L 194.826 265.237 194.856 261.767 C 194.873 259.858,194.959 257.956,195.048 257.539 L 195.211 256.782 197.731 256.801 C 199.118 256.811,201.473 256.839,202.965 256.864 L 205.678 256.909 205.678 261.073 L 205.678 265.237 206.814 265.237 L 207.950 265.237 207.950 255.632 L 207.950 246.028 206.877 246.105 L 205.804 246.183 205.735 250.284 L 205.666 254.385 200.309 254.385 L 194.953 254.386 195.028 250.221 L 195.102 246.057 193.829 246.057 L 192.555 246.057 192.555 255.647 M219.638 247.129 C 219.335 247.719,218.834 248.826,218.524 249.590 C 218.213 250.353,217.808 251.157,217.623 251.376 C 217.438 251.595,217.287 251.920,217.287 252.098 C 217.287 252.276,216.901 253.233,216.429 254.223 C 215.482 256.210,214.311 258.758,213.628 260.315 C 213.385 260.871,212.803 262.147,212.334 263.152 C 211.262 265.451,211.249 265.379,212.714 265.277 C 213.679 265.210,214.001 265.074,214.203 264.646 C 214.671 263.655,215.571 261.603,215.794 261.017 C 216.012 260.445,216.038 260.442,221.035 260.442 C 226.702 260.442,226.247 260.275,227.240 262.713 C 228.366 265.474,228.264 265.363,229.662 265.363 C 230.687 265.363,230.915 265.282,230.915 264.921 C 230.915 264.678,230.801 264.479,230.662 264.479 C 230.524 264.479,230.410 264.345,230.410 264.181 C 230.410 264.016,230.169 263.363,229.875 262.730 C 228.199 259.121,227.896 258.458,227.502 257.539 C 227.264 256.984,226.621 255.565,226.072 254.385 C 225.524 253.205,224.979 252.013,224.862 251.735 C 222.674 246.582,222.335 246.057,221.199 246.057 C 220.265 246.057,220.147 246.138,219.638 247.129 M230.664 247.382 L 230.662 248.580 233.687 248.580 L 236.712 248.580 236.779 256.972 L 236.845 265.363 238.041 265.440 L 239.236 265.516 239.303 257.020 L 239.369 248.523 242.587 248.564 L 245.804 248.606 245.804 247.314 L 245.804 246.022 238.235 246.103 L 230.666 246.183 230.664 247.382 M256.226 246.625 C 256.300 246.937,256.949 248.839,257.670 250.852 C 258.390 252.864,259.038 254.768,259.110 255.083 C 259.181 255.397,259.340 255.716,259.462 255.791 C 259.585 255.867,259.685 256.145,259.685 256.410 C 259.685 256.675,259.871 257.321,260.098 257.846 C 260.871 259.632,262.013 262.775,262.485 264.416 C 262.788 265.471,264.984 266.170,264.984 265.212 C 264.984 265.059,265.141 264.576,265.334 264.139 C 265.526 263.702,265.973 262.435,266.328 261.325 C 267.183 258.647,267.977 256.308,268.556 254.763 C 268.815 254.069,269.076 253.253,269.134 252.950 C 269.192 252.647,269.349 252.193,269.484 251.941 C 269.739 251.465,269.779 251.309,269.779 250.801 C 269.779 250.083,270.243 251.168,271.149 254.006 C 271.681 255.672,272.265 257.375,272.445 257.792 C 272.626 258.208,273.184 259.855,273.686 261.451 C 274.961 265.510,274.972 265.529,276.162 265.438 C 277.172 265.361,277.476 264.936,278.019 262.839 C 278.091 262.562,278.248 262.107,278.368 261.830 C 278.488 261.552,278.752 260.814,278.954 260.189 C 279.289 259.154,279.552 258.458,280.148 257.035 C 280.264 256.757,280.541 255.879,280.764 255.084 C 280.987 254.288,281.277 253.570,281.409 253.489 C 281.541 253.407,281.591 253.247,281.520 253.132 C 281.449 253.017,281.560 252.599,281.766 252.203 C 281.973 251.807,282.143 251.339,282.144 251.164 C 282.144 250.988,282.245 250.648,282.367 250.407 C 282.953 249.248,283.407 248.012,283.407 247.577 C 283.407 247.313,283.521 247.026,283.659 246.940 C 284.366 246.503,283.871 246.057,282.680 246.057 C 281.284 246.057,281.413 245.875,280.256 249.464 C 279.898 250.574,279.566 251.596,279.519 251.735 C 279.472 251.874,279.421 252.074,279.406 252.179 C 279.391 252.285,279.204 252.710,278.991 253.123 C 278.777 253.537,278.623 253.904,278.648 253.941 C 278.722 254.046,277.807 256.757,277.604 257.035 C 277.502 257.174,277.411 257.457,277.400 257.666 C 277.390 257.874,277.100 258.839,276.755 259.811 L 276.129 261.577 275.849 260.820 C 275.256 259.213,275.058 258.614,273.063 252.429 L 271.008 246.057 270.044 246.057 C 269.105 246.057,268.808 246.355,268.664 247.445 C 268.645 247.584,268.539 247.843,268.427 248.021 C 268.316 248.200,268.020 249.051,267.770 249.914 C 267.520 250.777,267.197 251.767,267.051 252.114 C 266.906 252.461,266.195 254.593,265.472 256.852 C 264.002 261.444,263.941 261.549,263.499 260.239 C 263.326 259.726,263.091 259.079,262.977 258.801 C 262.864 258.524,262.633 257.785,262.465 257.161 C 262.297 256.536,262.046 255.811,261.907 255.549 C 261.672 255.104,260.874 252.698,260.837 252.324 C 260.828 252.231,260.735 252.070,260.631 251.966 C 260.527 251.862,260.442 251.535,260.442 251.239 C 260.442 250.943,260.344 250.592,260.226 250.461 C 260.107 250.329,259.816 249.596,259.578 248.833 C 258.726 246.093,258.697 246.057,257.322 246.057 C 256.176 246.057,256.102 246.095,256.226 246.625 M287.445 255.773 L 287.445 265.489 294.475 265.489 L 301.506 265.489 301.478 264.416 L 301.451 263.344 295.584 263.276 L 289.716 263.208 289.716 259.995 L 289.716 256.782 294.889 256.855 L 300.063 256.928 300.063 255.783 L 300.063 254.637 294.878 254.637 L 289.693 254.637 289.732 251.609 L 289.771 248.580 295.548 248.580 L 301.325 248.580 301.325 247.485 L 301.325 246.389 296.363 246.223 C 293.634 246.132,290.511 246.057,289.423 246.057 L 287.445 246.057 287.445 255.773 M313.438 255.899 L 313.438 265.489 318.297 265.488 C 320.968 265.487,323.552 265.384,324.038 265.260 C 324.524 265.135,325.240 264.962,325.630 264.874 C 326.797 264.612,328.496 262.844,328.980 261.389 C 329.681 259.277,328.424 256.705,326.237 255.780 L 325.535 255.483 326.320 254.881 C 329.279 252.614,328.263 247.706,324.608 246.611 C 323.971 246.420,321.733 246.309,318.520 246.309 L 313.438 246.309 313.438 255.899 M332.872 252.681 C 332.873 258.922,333.001 260.220,333.769 261.830 C 336.043 266.594,344.623 267.071,347.399 262.587 C 348.704 260.480,348.741 260.224,348.756 253.060 L 348.770 246.309 347.502 246.309 L 346.235 246.309 346.252 252.808 C 346.273 260.840,346.108 261.460,343.596 262.793 C 341.458 263.928,337.477 263.247,336.553 261.588 C 336.401 261.316,336.145 260.949,335.984 260.771 C 335.373 260.101,335.142 257.724,335.142 252.101 L 335.142 246.309 334.006 246.309 L 332.871 246.309 332.872 252.681 M353.817 255.899 L 353.817 265.489 355.083 265.489 L 356.349 265.489 356.282 255.899 L 356.215 246.310 355.016 246.310 L 353.817 246.309 353.817 255.899 M361.388 255.889 L 361.388 265.497 367.886 265.430 L 374.385 265.363 374.462 264.290 L 374.540 263.218 369.229 263.218 L 363.918 263.218 363.852 254.826 L 363.785 246.435 362.587 246.358 L 361.388 246.281 361.388 255.889 M378.044 255.923 L 378.044 265.536 382.776 265.426 C 386.861 265.331,387.697 265.242,388.892 264.772 C 389.654 264.472,390.294 264.227,390.316 264.227 C 390.338 264.227,390.870 263.801,391.500 263.281 C 397.456 258.356,395.773 249.301,388.441 246.831 C 387.110 246.382,386.273 246.309,382.469 246.309 L 378.044 246.309 378.044 255.923 M29.049 248.584 C 32.266 249.477,32.739 253.132,29.868 254.916 C 28.976 255.471,28.585 255.527,25.110 255.605 L 21.325 255.690 21.325 252.009 L 21.325 248.328 24.732 248.329 C 26.606 248.330,28.548 248.445,29.049 248.584 M324.452 249.186 C 326.239 250.268,326.017 252.853,324.038 253.999 C 323.288 254.434,322.611 254.524,319.558 254.598 L 315.962 254.685 315.962 251.569 L 315.961 248.454 319.810 248.580 C 322.996 248.685,323.796 248.789,324.452 249.186 M388.265 249.295 C 390.458 250.291,391.863 252.015,392.309 254.259 C 392.420 254.814,392.537 255.399,392.570 255.558 C 392.874 257.041,391.459 260.314,390.049 261.389 C 388.074 262.893,387.544 263.047,383.921 263.170 L 380.568 263.284 380.568 255.907 L 380.568 248.530 383.785 248.626 C 386.458 248.706,387.217 248.819,388.265 249.295 M222.708 252.492 C 223.509 254.297,224.384 256.267,224.654 256.870 C 225.286 258.282,225.544 258.194,220.989 258.114 L 217.048 258.044 217.781 256.593 C 218.183 255.795,218.465 255.142,218.407 255.142 C 218.348 255.142,218.629 254.489,219.031 253.691 C 219.433 252.893,220.076 251.531,220.461 250.664 C 220.845 249.797,221.181 249.116,221.206 249.150 C 221.232 249.184,221.908 250.688,222.708 252.492 M324.979 257.567 C 326.574 258.335,327.098 259.534,326.477 261.000 C 325.702 262.834,324.513 263.214,319.558 263.216 L 315.962 263.218 315.962 260.084 C 315.962 258.250,316.065 256.916,316.211 256.866 C 317.380 256.471,323.761 256.981,324.979 257.567 M90.095 263.722 C 90.095 264.900,90.179 265.237,90.473 265.237 C 91.266 265.237,90.863 266.470,89.905 266.974 C 89.245 267.322,89.151 268.209,89.749 268.439 C 91.168 268.983,92.670 266.834,92.825 264.038 L 92.926 262.208 91.510 262.208 L 90.095 262.208 90.095 263.722 M397.645 262.376 C 397.552 262.469,397.476 263.207,397.476 264.017 L 397.476 265.489 398.738 265.489 L 400.000 265.489 400.000 263.849 L 400.000 262.208 398.906 262.208 C 398.305 262.208,397.737 262.284,397.645 262.376 " stroke="none" fill="#2c3494" fill-rule="evenodd"></path><path id="path4" d="M219.748 137.465 C 220.060 137.525,220.571 137.525,220.883 137.465 C 221.196 137.405,220.940 137.356,220.315 137.356 C 219.691 137.356,219.435 137.405,219.748 137.465 M222.397 137.471 C 222.918 137.525,223.770 137.525,224.290 137.471 C 224.811 137.416,224.385 137.372,223.344 137.372 C 222.303 137.372,221.877 137.416,222.397 137.471 M347.449 182.139 C 347.903 182.195,348.584 182.194,348.964 182.136 C 349.343 182.079,348.972 182.033,348.139 182.034 C 347.306 182.035,346.996 182.083,347.449 182.139 M232.883 246.245 C 234.034 246.292,235.851 246.291,236.921 246.244 C 237.990 246.197,237.047 246.159,234.826 246.159 C 232.606 246.159,231.731 246.198,232.883 246.245 M356.157 251.861 C 356.157 252.486,356.206 252.741,356.266 252.429 C 356.327 252.117,356.327 251.606,356.266 251.293 C 356.206 250.981,356.157 251.237,356.157 251.861 M356.157 255.394 C 356.157 256.019,356.206 256.274,356.266 255.962 C 356.327 255.650,356.327 255.139,356.266 254.826 C 356.206 254.514,356.157 254.770,356.157 255.394 M195.647 256.830 C 195.890 256.894,196.287 256.894,196.530 256.830 C 196.773 256.767,196.574 256.715,196.088 256.715 C 195.603 256.715,195.404 256.767,195.647 256.830 M197.669 256.837 C 198.053 256.895,198.621 256.894,198.931 256.834 C 199.241 256.774,198.927 256.726,198.233 256.728 C 197.539 256.730,197.285 256.779,197.669 256.837 M229.211 265.411 C 229.454 265.474,229.852 265.474,230.095 265.411 C 230.338 265.347,230.139 265.295,229.653 265.295 C 229.167 265.295,228.968 265.347,229.211 265.411 " stroke="none" fill="#2c3c94" fill-rule="evenodd"></path></g></svg>